# xmcd
#
# Track frame offsets: 
#        150
#        12794
#        25655
#        40731
#        61375
#        84301
#        97286
#        115740
#        133792
#        147403
#        160618
#        176508
#        190659
#        206062
#
# Disc length: 2917 seconds
#
# Revision: 0
# Processed by: cddbd v1.5.2PL0 Copyright (c) Steve Scherf et al.
# Submitted via: ExactAudioCopy v0.95b4
#
DISCID=b60b630e
DTITLE=Doc and Richard Watson - Third Generation Blues
DYEAR=1999
DGENRE=Blues
TTITLE0=Turn The Lamps Down Low
TTITLE1=If I Were A Carpenter
TTITLE2=House of the Rising Sun
TTITLE3=Gypsy Davey
TTITLE4=St. James Infirmary
TTITLE5=Uncloudy Day
TTITLE6=South Coast
TTITLE7=Milk Cow Blues
TTITLE8=Train Whistle Blues
TTITLE9=Moody River
TTITLE10=Columbus Stockade Blues
TTITLE11=Walk on Boy
TTITLE12=Summertime
TTITLE13=Precious Lord Take my Hand
EXTD=
EXTT0=
EXTT1=
EXTT2=
EXTT3=
EXTT4=
EXTT5=
EXTT6=
EXTT7=
EXTT8=
EXTT9=
EXTT10=
EXTT11=
EXTT12=
EXTT13=
PLAYORDER=
